<svg width="22" height="17" viewBox="0 0 22 17" fill="none" xmlns="http://www.w3.org/2000/svg">
<g id="Group">
<path id="Vector" d="M21.6578 10.6993V10.653C21.5717 10.3894 21.4633 10.1336 21.3335 9.88854L18.1832 2.45288C17.9727 1.49972 17.3291 0.699403 16.4433 0.289316C15.5574 -0.120774 14.5309 -0.0936269 13.6679 0.362672C12.8051 0.818963 12.2046 1.65192 12.0446 2.61492H9.82098C9.66102 1.65192 9.06058 0.818963 8.19776 0.362672C7.33478 -0.0936186 6.30823 -0.120795 5.42229 0.289316C4.53652 0.699407 3.89293 1.49972 3.68242 2.45288L0.555358 9.84222C0.425449 10.0872 0.317028 10.3429 0.231069 10.6065V10.6529C-0.198583 11.9932 -0.0235786 13.454 0.710317 14.655C1.4442 15.8559 2.66445 16.678 4.05306 16.9071C4.33615 16.9553 4.62293 16.9786 4.91009 16.9766C6.04761 16.9684 7.14649 16.5635 8.01742 15.832C8.88851 15.1005 9.47713 14.0882 9.68201 12.9693C9.75924 12.5257 9.77475 12.0737 9.72822 11.6258V11.1394H12.1374V11.6259V11.6258C12.048 12.4907 12.192 13.3639 12.5546 14.1542C12.9171 14.9444 13.4849 15.6233 14.199 16.1196C15.0195 16.6963 15.9988 17.0038 17.0017 16.9999C17.289 17.0017 17.5757 16.9784 17.8589 16.9304C19.2475 16.7013 20.4678 15.8792 21.2017 14.6782C21.9356 13.4773 22.1106 12.0163 21.6809 10.676L21.6578 10.6993ZM14.0832 2.42976C14.2825 2.15847 14.5795 1.97542 14.9116 1.91899C15.2434 1.86276 15.5844 1.93774 15.862 2.12824C16.1397 2.31858 16.3325 2.60943 16.3996 2.93935C16.4178 3.02838 16.449 3.11435 16.4922 3.19417L18.2758 7.41003C16.7707 6.9951 15.158 7.33134 13.9441 8.31343L13.8747 3.54163V3.47215V3.40267V3.40251C13.8094 3.06335 13.8847 2.71238 14.0831 2.42962L14.0832 2.42976ZM9.82097 4.46824H12.0448L12.0446 6.87722H9.79773L9.82097 4.46824ZM6.94859 1.89703C7.28144 1.95924 7.57683 2.1491 7.77166 2.42604C7.96636 2.70315 8.04505 3.04522 7.99092 3.37953V3.44901V3.51849L7.92144 8.31345C6.70363 7.33944 5.09121 7.01175 3.58976 7.43317L5.37344 3.21732C5.41658 3.13733 5.44776 3.05153 5.46602 2.9625C5.5229 2.62529 5.71049 2.32425 5.98808 2.12471C6.26568 1.92516 6.61082 1.84324 6.94852 1.89688L6.94859 1.89703ZM6.60119 14.6141C5.91351 15.1076 5.05003 15.2888 4.22191 15.1135C3.39396 14.9384 2.67786 14.4228 2.2492 13.6931C1.82038 12.9634 1.71842 12.087 1.96838 11.2784L2.2463 10.653C2.50919 10.1834 2.89245 9.79209 3.35652 9.51933C3.82058 9.24657 4.34877 9.10229 4.887 9.10101L5.41973 9.14738C6.04748 9.26324 6.62269 9.5741 7.06347 10.0358C7.50425 10.4974 7.7883 11.0862 7.87508 11.7186V12.622C7.73984 13.432 7.27964 14.1516 6.60118 14.6141L6.60119 14.6141ZM9.75151 9.28636V8.73039H12.091V9.30949L9.75151 9.28636ZM19.4804 13.8728C19.0186 14.5287 18.3161 14.975 17.5261 15.1143C16.7363 15.2536 15.9234 15.0744 15.2653 14.6161C14.607 14.1577 14.157 13.4574 14.0137 12.6683V11.7187C14.1005 11.0863 14.3845 10.4975 14.8253 10.0358C15.2662 9.57418 15.8413 9.26328 16.469 9.14742L17.0018 9.10105C17.5402 9.10234 18.0684 9.24663 18.5324 9.51937C18.9965 9.7921 19.3796 10.1835 19.6425 10.653L19.9204 11.2785H19.9206C20.1896 12.1612 20.0358 13.1189 19.5035 13.8728L19.4804 13.8728Z" fill="#0A192E"/>
</g>
</svg>
